<svg width="98" height="26" viewBox="0 0 98 26" fill="none" xmlns="http://www.w3.org/2000/svg">
<path d="M29.7052 25.1514C31.1882 25.1571 32.6538 24.8328 33.9945 24.2025C35.2822 23.621 36.4153 22.7483 37.3035 21.6542V24.497H43.4939V1.46796H37.3035V13.3551C37.3035 15.2187 36.811 16.7027 35.826 17.8071C35.3588 18.3439 34.7775 18.7708 34.1241 19.057C33.4706 19.3431 32.7614 19.4814 32.0477 19.4618C30.7034 19.4618 29.6323 19.0888 28.8342 18.3429C28.0361 17.5969 27.6384 16.4767 27.641 14.9821V1.46796H21.4506V17.1785C21.4506 19.7893 22.193 21.7709 23.6778 23.1231C25.1626 24.4753 27.1717 25.1514 29.7052 25.1514ZM47.7117 24.497H53.9021V12.6098C53.9021 10.7436 54.3946 9.25964 55.3796 8.15784C55.8468 7.62091 56.4281 7.19379 57.0814 6.9073C57.7348 6.62082 58.444 6.4821 59.1579 6.50118C60.5022 6.50118 61.5727 6.87416 62.3694 7.62012C63.1662 8.36607 63.5639 9.48632 63.5626 10.9809V24.501H69.753V8.78254C69.753 6.1717 69.0106 4.19017 67.5258 2.83796C66.041 1.48575 64.0325 0.809653 61.5004 0.809653C60.0161 0.806551 58.5499 1.13347 57.2091 1.76648C55.9233 2.34654 54.7911 3.21628 53.9021 4.30681V1.46796H47.7117V24.497ZM84.8542 19.4579C82.9465 19.4579 81.4146 18.8365 80.2586 17.5936C79.1026 16.3508 78.5239 14.8121 78.5226 12.9776C78.5226 11.1456 79.1013 9.60757 80.2586 8.36344C81.416 7.1193 82.9478 6.49723 84.8542 6.49723C86.7619 6.49723 88.2938 7.1193 89.4498 8.36344C90.6058 9.60757 91.1872 11.1469 91.1938 12.9815C91.1938 14.8161 90.6158 16.3548 89.4598 17.5976C88.3037 18.8404 86.7685 19.4605 84.8542 19.4579ZM83.5875 25.1474C85.3109 25.1474 86.7182 24.9142 87.8092 24.4476C88.9531 23.9482 90.0003 23.2537 90.9035 22.3956V24.4931H97.0939V1.46796H90.9035V3.56546C90.2472 2.72594 89.3013 2.05774 88.0658 1.56088C86.76 1.0496 85.3666 0.795793 83.9633 0.813605C81.8926 0.801466 79.8605 1.37092 78.101 2.45642C76.3259 3.53634 74.87 5.06419 73.8813 6.8847C72.8472 8.75472 72.3138 10.8575 72.3322 12.9914C72.3322 15.4164 72.8717 17.5534 73.9509 19.4025C74.9502 21.1728 76.407 22.6456 78.1706 23.6687C79.8112 24.6336 81.6813 25.1455 83.5875 25.1514V25.1474ZM0.759521 24.4931H18.7302V18.8984H7.41925V1.46796H0.759521V24.4931Z" fill="white"/>
</svg>
