<svg width="28" height="30" viewBox="0 0 28 30" fill="none" xmlns="http://www.w3.org/2000/svg">
<path d="M25.0932 15.0788C24.9548 15.0788 24.6779 15.2233 24.5395 15.3677L23.1552 16.8122L26.0622 19.8455L27.4464 18.401C27.7233 18.1122 27.7233 17.5344 27.4464 17.2455L25.6469 15.3677C25.5085 15.2233 25.37 15.0788 25.0932 15.0788ZM22.4631 17.6788L14.0191 26.3455V29.3788H16.926L25.37 20.5677L22.4631 17.6788ZM25.0932 9.1566H14.0191V0.489929H25.0932V9.1566ZM14.0191 22.2433V12.0455H25.0932V12.1899C24.0411 12.1899 23.1137 12.7677 22.5877 13.331L14.0191 22.2433ZM11.2506 14.9344H0.17651V0.489929H11.2506V14.9344ZM11.2506 26.4899H0.17651V17.8233H11.2506V26.4899Z" fill="#1C1E36"/>
</svg>
