<svg width="28" height="30" viewBox="0 0 28 30" fill="none" xmlns="http://www.w3.org/2000/svg">
<path d="M25.0931 15.4984C24.9546 15.4984 24.6778 15.6428 24.5394 15.7873L23.1551 17.2317L26.062 20.265L27.4463 18.8206C27.7232 18.5317 27.7232 17.9539 27.4463 17.665L25.6468 15.7873C25.5083 15.6428 25.3699 15.4984 25.0931 15.4984ZM22.463 18.0984L14.019 26.765V29.7984H16.9259L25.3699 20.9873L22.463 18.0984ZM25.0931 9.57615H14.019V0.909485H25.0931V9.57615ZM14.019 22.6628V12.465H25.0931V12.6095C24.041 12.6095 23.1136 13.1873 22.5876 13.7506L14.019 22.6628ZM11.2505 15.3539H0.176392V0.909485H11.2505V15.3539ZM11.2505 26.9095H0.176392V18.2428H11.2505V26.9095Z" fill="white"/>
</svg>
