<svg width="376" height="248" viewBox="0 0 376 248" fill="none" xmlns="http://www.w3.org/2000/svg">
<path d="M106.203 166H124.003V170.8H111.883V177.2H123.563V182H111.883V189.2H124.163V194H106.203V166ZM127.996 165.2H133.276V194H127.996V165.2ZM147.798 194.56C145.718 194.56 143.851 194.093 142.198 193.16C140.544 192.227 139.238 190.96 138.278 189.36C137.344 187.733 136.878 185.933 136.878 183.96C136.878 182.04 137.318 180.307 138.198 178.76C139.104 177.187 140.344 175.947 141.918 175.04C143.518 174.133 145.318 173.68 147.318 173.68C149.344 173.68 151.091 174.16 152.558 175.12C154.051 176.053 155.171 177.307 155.918 178.88C156.691 180.453 157.078 182.147 157.078 183.96V185.52H141.918C142.238 187.013 142.918 188.147 143.958 188.92C145.024 189.693 146.424 190.08 148.158 190.08C150.798 190.08 153.104 189.213 155.078 187.48H155.638L155.438 192.48C154.238 193.173 152.971 193.693 151.638 194.04C150.304 194.387 149.024 194.56 147.798 194.56ZM151.798 181.92C151.664 180.72 151.158 179.787 150.278 179.12C149.424 178.427 148.371 178.08 147.118 178.08C145.891 178.08 144.811 178.413 143.878 179.08C142.971 179.72 142.358 180.667 142.038 181.92H151.798ZM160.769 174.24H166.049V176.68C166.663 175.8 167.556 175.08 168.729 174.52C169.903 173.96 171.089 173.68 172.289 173.68C173.649 173.68 174.823 173.92 175.809 174.4C176.823 174.853 177.583 175.547 178.089 176.48C178.969 175.547 179.956 174.853 181.049 174.4C182.169 173.92 183.449 173.68 184.889 173.68C186.809 173.68 188.343 174.24 189.489 175.36C190.636 176.48 191.209 178.013 191.209 179.96V194H185.929V182.08C185.929 180.907 185.663 180.027 185.129 179.44C184.623 178.853 183.876 178.56 182.889 178.56C181.716 178.56 180.716 179.013 179.889 179.92C179.063 180.8 178.649 181.947 178.649 183.36V194H173.369V182.08C173.369 179.733 172.343 178.56 170.289 178.56C169.116 178.56 168.116 179.027 167.289 179.96C166.463 180.893 166.049 182.093 166.049 183.56V194H160.769V174.24ZM205.493 194.56C203.413 194.56 201.546 194.093 199.893 193.16C198.24 192.227 196.933 190.96 195.973 189.36C195.04 187.733 194.573 185.933 194.573 183.96C194.573 182.04 195.013 180.307 195.893 178.76C196.8 177.187 198.04 175.947 199.613 175.04C201.213 174.133 203.013 173.68 205.013 173.68C207.04 173.68 208.786 174.16 210.253 175.12C211.746 176.053 212.866 177.307 213.613 178.88C214.386 180.453 214.773 182.147 214.773 183.96V185.52H199.613C199.933 187.013 200.613 188.147 201.653 188.92C202.72 189.693 204.12 190.08 205.853 190.08C208.493 190.08 210.8 189.213 212.773 187.48H213.333L213.133 192.48C211.933 193.173 210.666 193.693 209.333 194.04C208 194.387 206.72 194.56 205.493 194.56ZM209.493 181.92C209.36 180.72 208.853 179.787 207.973 179.12C207.12 178.427 206.066 178.08 204.813 178.08C203.586 178.08 202.506 178.413 201.573 179.08C200.666 179.72 200.053 180.667 199.733 181.92H209.493ZM218.465 174.24H223.745V176.68C224.465 175.773 225.398 175.053 226.545 174.52C227.718 173.96 228.945 173.68 230.225 173.68C232.385 173.68 234.091 174.267 235.345 175.44C236.625 176.587 237.265 178.28 237.265 180.52V194H231.985V182.4C231.985 181.12 231.638 180.16 230.945 179.52C230.278 178.88 229.371 178.56 228.225 178.56C226.918 178.56 225.838 179.04 224.985 180C224.158 180.933 223.745 182.2 223.745 183.8V194H218.465V174.24ZM249.268 194.56C247.561 194.56 246.108 194 244.908 192.88C243.708 191.76 243.108 190.107 243.108 187.92V178.72H239.828V174.24H243.108V170.96L248.388 168.56V174.24H253.748V178.72H248.388V187.68C248.388 188.507 248.588 189.12 248.988 189.52C249.388 189.92 249.908 190.12 250.548 190.12C251.534 190.12 252.548 189.733 253.588 188.96H254.188L253.828 193.56C252.948 193.96 252.201 194.227 251.588 194.36C251.001 194.493 250.228 194.56 249.268 194.56ZM263.644 194.56C260.898 194.56 258.551 193.92 256.604 192.64L257.804 187.68H258.044C259.778 189.013 261.551 189.68 263.364 189.68C264.111 189.68 264.711 189.547 265.164 189.28C265.644 188.987 265.884 188.573 265.884 188.04C265.884 187.48 265.604 187.027 265.044 186.68C264.511 186.333 263.498 185.907 262.004 185.4C260.484 184.893 259.298 184.16 258.444 183.2C257.618 182.24 257.204 181.107 257.204 179.8C257.204 177.96 257.884 176.48 259.244 175.36C260.631 174.24 262.378 173.68 264.484 173.68C265.551 173.68 266.498 173.787 267.324 174C268.151 174.187 268.938 174.507 269.684 174.96L269.884 180H269.604C268.644 179.387 267.791 178.933 267.044 178.64C266.298 178.32 265.458 178.16 264.524 178.16C263.858 178.16 263.311 178.293 262.884 178.56C262.458 178.827 262.244 179.173 262.244 179.6C262.244 180.16 262.511 180.627 263.044 181C263.578 181.347 264.578 181.773 266.044 182.28C267.724 182.84 268.991 183.52 269.844 184.32C270.724 185.12 271.164 186.36 271.164 188.04C271.164 189.427 270.818 190.613 270.124 191.6C269.431 192.587 268.511 193.333 267.364 193.84C266.244 194.32 265.004 194.56 263.644 194.56Z" fill="white"/>
<path d="M201.99 100.776C197.306 100.776 193.509 104.573 193.509 109.256V133.519C193.509 138.203 197.306 142 201.99 142H226.235C230.919 142 234.716 138.203 234.716 133.519V109.256C234.716 104.573 230.919 100.776 226.235 100.776H201.99ZM142 133.519C142 138.203 145.797 142 150.481 142H174.726C179.41 142 183.207 138.203 183.207 133.519V109.256C183.207 104.573 179.41 100.776 174.726 100.776H150.481C145.797 100.776 142 104.573 142 109.256V133.519ZM150.481 49.2452C145.797 49.2452 142 53.0421 142 57.7258V81.989C142 86.6727 145.797 90.4696 150.481 90.4696H174.726C179.41 90.4696 183.207 86.6727 183.207 81.989V57.7258C183.207 53.0421 179.41 49.2452 174.726 49.2452H150.481ZM218.355 48.4802C215.043 45.1733 209.679 45.1733 206.368 48.4801L189.21 65.6143C185.895 68.925 185.893 74.2963 189.205 77.6098L206.362 94.7743C209.675 98.0883 215.048 98.0883 218.36 94.7743L235.517 77.6098C238.83 74.2963 238.827 68.925 235.512 65.6143L218.355 48.4802Z" fill="#F99C81"/>
</svg>
