<svg width="640" height="409" viewBox="0 0 640 409" fill="none" xmlns="http://www.w3.org/2000/svg">
<path d="M381.166 185.5H401.191V190.9H387.556V198.1H400.696V203.5H387.556V211.6H401.371V217H381.166V185.5ZM405.683 184.6H411.623V217H405.683V184.6ZM427.96 217.63C425.62 217.63 423.52 217.105 421.66 216.055C419.8 215.005 418.33 213.58 417.25 211.78C416.2 209.95 415.675 207.925 415.675 205.705C415.675 203.545 416.17 201.595 417.16 199.855C418.18 198.085 419.575 196.69 421.345 195.67C423.145 194.65 425.17 194.14 427.42 194.14C429.7 194.14 431.665 194.68 433.315 195.76C434.995 196.81 436.255 198.22 437.095 199.99C437.965 201.76 438.4 203.665 438.4 205.705V207.46H421.345C421.705 209.14 422.47 210.415 423.64 211.285C424.84 212.155 426.415 212.59 428.365 212.59C431.335 212.59 433.93 211.615 436.15 209.665H436.78L436.555 215.29C435.205 216.07 433.78 216.655 432.28 217.045C430.78 217.435 429.34 217.63 427.96 217.63ZM432.46 203.41C432.31 202.06 431.74 201.01 430.75 200.26C429.79 199.48 428.605 199.09 427.195 199.09C425.815 199.09 424.6 199.465 423.55 200.215C422.53 200.935 421.84 202 421.48 203.41H432.46ZM442.553 194.77H448.493V197.515C449.183 196.525 450.188 195.715 451.508 195.085C452.828 194.455 454.163 194.14 455.513 194.14C457.043 194.14 458.363 194.41 459.473 194.95C460.613 195.46 461.468 196.24 462.038 197.29C463.028 196.24 464.138 195.46 465.368 194.95C466.628 194.41 468.068 194.14 469.688 194.14C471.848 194.14 473.573 194.77 474.863 196.03C476.153 197.29 476.798 199.015 476.798 201.205V217H470.858V203.59C470.858 202.27 470.558 201.28 469.958 200.62C469.388 199.96 468.548 199.63 467.438 199.63C466.118 199.63 464.993 200.14 464.063 201.16C463.133 202.15 462.668 203.44 462.668 205.03V217H456.728V203.59C456.728 200.95 455.573 199.63 453.263 199.63C451.943 199.63 450.818 200.155 449.888 201.205C448.958 202.255 448.493 203.605 448.493 205.255V217H442.553V194.77ZM492.868 217.63C490.528 217.63 488.428 217.105 486.568 216.055C484.708 215.005 483.238 213.58 482.158 211.78C481.108 209.95 480.583 207.925 480.583 205.705C480.583 203.545 481.078 201.595 482.068 199.855C483.088 198.085 484.483 196.69 486.253 195.67C488.053 194.65 490.078 194.14 492.328 194.14C494.608 194.14 496.573 194.68 498.223 195.76C499.903 196.81 501.163 198.22 502.003 199.99C502.873 201.76 503.308 203.665 503.308 205.705V207.46H486.253C486.613 209.14 487.378 210.415 488.548 211.285C489.748 212.155 491.323 212.59 493.273 212.59C496.243 212.59 498.838 211.615 501.058 209.665H501.688L501.463 215.29C500.113 216.07 498.688 216.655 497.188 217.045C495.688 217.435 494.248 217.63 492.868 217.63ZM497.368 203.41C497.218 202.06 496.648 201.01 495.658 200.26C494.698 199.48 493.513 199.09 492.103 199.09C490.723 199.09 489.508 199.465 488.458 200.215C487.438 200.935 486.748 202 486.388 203.41H497.368ZM507.461 194.77H513.401V197.515C514.211 196.495 515.261 195.685 516.551 195.085C517.871 194.455 519.251 194.14 520.691 194.14C523.121 194.14 525.041 194.8 526.451 196.12C527.891 197.41 528.611 199.315 528.611 201.835V217H522.671V203.95C522.671 202.51 522.281 201.43 521.501 200.71C520.751 199.99 519.731 199.63 518.441 199.63C516.971 199.63 515.756 200.17 514.796 201.25C513.866 202.3 513.401 203.725 513.401 205.525V217H507.461V194.77ZM542.114 217.63C540.194 217.63 538.559 217 537.209 215.74C535.859 214.48 535.184 212.62 535.184 210.16V199.81H531.494V194.77H535.184V191.08L541.124 188.38V194.77H547.154V199.81H541.124V209.89C541.124 210.82 541.349 211.51 541.799 211.96C542.249 212.41 542.834 212.635 543.554 212.635C544.664 212.635 545.804 212.2 546.974 211.33H547.649L547.244 216.505C546.254 216.955 545.414 217.255 544.724 217.405C544.064 217.555 543.194 217.63 542.114 217.63ZM558.288 217.63C555.198 217.63 552.558 216.91 550.368 215.47L551.718 209.89H551.988C553.938 211.39 555.933 212.14 557.973 212.14C558.813 212.14 559.488 211.99 559.998 211.69C560.538 211.36 560.808 210.895 560.808 210.295C560.808 209.665 560.493 209.155 559.863 208.765C559.263 208.375 558.123 207.895 556.443 207.325C554.733 206.755 553.398 205.93 552.438 204.85C551.508 203.77 551.043 202.495 551.043 201.025C551.043 198.955 551.808 197.29 553.338 196.03C554.898 194.77 556.863 194.14 559.233 194.14C560.433 194.14 561.498 194.26 562.428 194.5C563.358 194.71 564.243 195.07 565.083 195.58L565.308 201.25H564.993C563.913 200.56 562.953 200.05 562.113 199.72C561.273 199.36 560.328 199.18 559.278 199.18C558.528 199.18 557.913 199.33 557.433 199.63C556.953 199.93 556.713 200.32 556.713 200.8C556.713 201.43 557.013 201.955 557.613 202.375C558.213 202.765 559.338 203.245 560.988 203.815C562.878 204.445 564.303 205.21 565.263 206.11C566.253 207.01 566.748 208.405 566.748 210.295C566.748 211.855 566.358 213.19 565.578 214.3C564.798 215.41 563.763 216.25 562.473 216.82C561.213 217.36 559.818 217.63 558.288 217.63Z" fill="white"/>
<path d="M215.979 219.681C205.83 219.681 197.603 227.907 197.603 238.055V290.625C197.603 300.773 205.83 309 215.979 309H268.509C278.658 309 286.885 300.773 286.885 290.625V238.055C286.885 227.907 278.658 219.681 268.509 219.681H215.979ZM86 290.625C86 300.773 94.2274 309 104.376 309H156.906C167.055 309 175.282 300.773 175.282 290.625V238.055C175.282 227.907 167.055 219.681 156.906 219.681H104.376C94.2274 219.681 86 227.907 86 238.055V290.625ZM104.376 108.031C94.2274 108.031 86 116.258 86 126.406V178.976C86 189.124 94.2274 197.351 104.376 197.351H156.906C167.055 197.351 175.282 189.124 175.282 178.976V126.406C175.282 116.258 167.055 108.031 156.906 108.031H104.376ZM251.435 106.374C244.261 99.2088 232.638 99.2088 225.463 106.374L188.289 143.498C181.106 150.671 181.101 162.309 188.278 169.488L225.452 206.678C232.629 213.858 244.27 213.858 251.447 206.678L288.621 169.488C295.797 162.309 295.792 150.671 288.61 143.498L251.435 106.374Z" fill="#F99C81"/>
</svg>
