<svg width="640" height="409" viewBox="0 0 640 409" fill="none" xmlns="http://www.w3.org/2000/svg">
<path d="M391.537 185.5H400.717C404.287 185.5 407.107 186.385 409.177 188.155C411.247 189.895 412.282 192.28 412.282 195.31C412.282 198.34 411.247 200.74 409.177 202.51C407.107 204.25 404.287 205.12 400.717 205.12H397.927V217H391.537V185.5ZM400.762 199.63C402.532 199.63 403.822 199.255 404.632 198.505C405.472 197.725 405.892 196.66 405.892 195.31C405.892 193.96 405.472 192.91 404.632 192.16C403.822 191.38 402.532 190.99 400.762 190.99H397.927V199.63H400.762ZM416.23 184.6H422.17V217H416.23V184.6ZM437.022 217.63C435.222 217.63 433.482 217.15 431.802 216.19C430.152 215.23 428.802 213.865 427.752 212.095C426.732 210.295 426.222 208.225 426.222 205.885C426.222 203.755 426.717 201.79 427.707 199.99C428.697 198.19 430.047 196.765 431.757 195.715C433.467 194.665 435.342 194.14 437.382 194.14C438.822 194.14 440.127 194.38 441.297 194.86C442.497 195.34 443.412 195.985 444.042 196.795V194.77H449.982V217H444.042V214.975C443.112 215.845 442.122 216.505 441.072 216.955C440.022 217.405 438.672 217.63 437.022 217.63ZM438.237 212.14C440.067 212.14 441.537 211.54 442.647 210.34C443.757 209.14 444.312 207.655 444.312 205.885C444.312 204.115 443.757 202.63 442.647 201.43C441.537 200.23 440.067 199.63 438.237 199.63C436.407 199.63 434.937 200.23 433.827 201.43C432.717 202.63 432.162 204.115 432.162 205.885C432.162 207.655 432.717 209.14 433.827 210.34C434.937 211.54 436.407 212.14 438.237 212.14ZM461.375 212.59L453.05 194.77H459.35L464.57 205.975L470.015 194.77H476.405L460.655 227.17H454.265L461.375 212.59ZM487.471 217.63C485.671 217.63 483.931 217.15 482.251 216.19C480.601 215.23 479.251 213.865 478.201 212.095C477.181 210.295 476.671 208.225 476.671 205.885C476.671 203.755 477.166 201.79 478.156 199.99C479.146 198.19 480.496 196.765 482.206 195.715C483.916 194.665 485.791 194.14 487.831 194.14C489.271 194.14 490.576 194.38 491.746 194.86C492.946 195.34 493.861 195.985 494.491 196.795V194.77H500.431V217H494.491V214.975C493.561 215.845 492.571 216.505 491.521 216.955C490.471 217.405 489.121 217.63 487.471 217.63ZM488.686 212.14C490.516 212.14 491.986 211.54 493.096 210.34C494.206 209.14 494.761 207.655 494.761 205.885C494.761 204.115 494.206 202.63 493.096 201.43C491.986 200.23 490.516 199.63 488.686 199.63C486.856 199.63 485.386 200.23 484.276 201.43C483.166 202.63 482.611 204.115 482.611 205.885C482.611 207.655 483.166 209.14 484.276 210.34C485.386 211.54 486.856 212.14 488.686 212.14ZM518.754 217.63C515.754 217.63 513.369 216.64 511.599 214.66V217H505.659V184.6H511.599V196.885C513.219 195.055 515.574 194.14 518.664 194.14C520.704 194.14 522.564 194.605 524.244 195.535C525.924 196.465 527.244 197.815 528.204 199.585C529.194 201.355 529.689 203.455 529.689 205.885C529.689 208.135 529.209 210.16 528.249 211.96C527.319 213.73 526.014 215.125 524.334 216.145C522.684 217.135 520.824 217.63 518.754 217.63ZM517.539 212.14C519.369 212.14 520.854 211.555 521.994 210.385C523.164 209.185 523.749 207.685 523.749 205.885C523.749 204.085 523.164 202.6 521.994 201.43C520.854 200.23 519.369 199.63 517.539 199.63C515.709 199.63 514.209 200.23 513.039 201.43C511.899 202.6 511.329 204.085 511.329 205.885C511.329 207.685 511.899 209.185 513.039 210.385C514.209 211.555 515.709 212.14 517.539 212.14ZM533.74 184.6H539.68V217H533.74V184.6ZM556.017 217.63C553.677 217.63 551.577 217.105 549.717 216.055C547.857 215.005 546.387 213.58 545.307 211.78C544.257 209.95 543.732 207.925 543.732 205.705C543.732 203.545 544.227 201.595 545.217 199.855C546.237 198.085 547.632 196.69 549.402 195.67C551.202 194.65 553.227 194.14 555.477 194.14C557.757 194.14 559.722 194.68 561.372 195.76C563.052 196.81 564.312 198.22 565.152 199.99C566.022 201.76 566.457 203.665 566.457 205.705V207.46H549.402C549.762 209.14 550.527 210.415 551.697 211.285C552.897 212.155 554.472 212.59 556.422 212.59C559.392 212.59 561.987 211.615 564.207 209.665H564.837L564.612 215.29C563.262 216.07 561.837 216.655 560.337 217.045C558.837 217.435 557.397 217.63 556.017 217.63ZM560.517 203.41C560.367 202.06 559.797 201.01 558.807 200.26C557.847 199.48 556.662 199.09 555.252 199.09C553.872 199.09 552.657 199.465 551.607 200.215C550.587 200.935 549.897 202 549.537 203.41H560.517Z" fill="white"/>
<path d="M87 142.853C87 121.395 104.395 104 125.853 104H249.147C270.605 104 288 121.395 288 142.853V266.147C288 287.605 270.605 305 249.147 305H125.853C104.395 305 87 287.605 87 266.147V142.853Z" fill="#4961EE" stroke="#4961EE" stroke-width="30"/>
</svg>
