<svg width="376" height="248" viewBox="0 0 376 248" fill="none" xmlns="http://www.w3.org/2000/svg">
<path d="M110.812 166H118.972C122.145 166 124.652 166.787 126.492 168.36C128.332 169.907 129.252 172.027 129.252 174.72C129.252 177.413 128.332 179.547 126.492 181.12C124.652 182.667 122.145 183.44 118.972 183.44H116.492V194H110.812V166ZM119.012 178.56C120.585 178.56 121.732 178.227 122.452 177.56C123.199 176.867 123.572 175.92 123.572 174.72C123.572 173.52 123.199 172.587 122.452 171.92C121.732 171.227 120.585 170.88 119.012 170.88H116.492V178.56H119.012ZM132.761 165.2H138.041V194H132.761V165.2ZM151.243 194.56C149.643 194.56 148.097 194.133 146.603 193.28C145.137 192.427 143.937 191.213 143.003 189.64C142.097 188.04 141.643 186.2 141.643 184.12C141.643 182.227 142.083 180.48 142.963 178.88C143.843 177.28 145.043 176.013 146.563 175.08C148.083 174.147 149.75 173.68 151.563 173.68C152.843 173.68 154.003 173.893 155.043 174.32C156.11 174.747 156.923 175.32 157.483 176.04V174.24H162.763V194H157.483V192.2C156.657 192.973 155.777 193.56 154.843 193.96C153.91 194.36 152.71 194.56 151.243 194.56ZM152.323 189.68C153.95 189.68 155.257 189.147 156.243 188.08C157.23 187.013 157.723 185.693 157.723 184.12C157.723 182.547 157.23 181.227 156.243 180.16C155.257 179.093 153.95 178.56 152.323 178.56C150.697 178.56 149.39 179.093 148.403 180.16C147.417 181.227 146.923 182.547 146.923 184.12C146.923 185.693 147.417 187.013 148.403 188.08C149.39 189.147 150.697 189.68 152.323 189.68ZM172.89 190.08L165.49 174.24H171.09L175.73 184.2L180.57 174.24H186.25L172.25 203.04H166.57L172.89 190.08ZM196.087 194.56C194.487 194.56 192.94 194.133 191.447 193.28C189.98 192.427 188.78 191.213 187.847 189.64C186.94 188.04 186.487 186.2 186.487 184.12C186.487 182.227 186.927 180.48 187.807 178.88C188.687 177.28 189.887 176.013 191.407 175.08C192.927 174.147 194.594 173.68 196.407 173.68C197.687 173.68 198.847 173.893 199.887 174.32C200.954 174.747 201.767 175.32 202.327 176.04V174.24H207.607V194H202.327V192.2C201.5 192.973 200.62 193.56 199.687 193.96C198.754 194.36 197.554 194.56 196.087 194.56ZM197.167 189.68C198.794 189.68 200.1 189.147 201.087 188.08C202.074 187.013 202.567 185.693 202.567 184.12C202.567 182.547 202.074 181.227 201.087 180.16C200.1 179.093 198.794 178.56 197.167 178.56C195.54 178.56 194.234 179.093 193.247 180.16C192.26 181.227 191.767 182.547 191.767 184.12C191.767 185.693 192.26 187.013 193.247 188.08C194.234 189.147 195.54 189.68 197.167 189.68ZM223.894 194.56C221.227 194.56 219.107 193.68 217.534 191.92V194H212.254V165.2H217.534V176.12C218.974 174.493 221.067 173.68 223.814 173.68C225.627 173.68 227.28 174.093 228.774 174.92C230.267 175.747 231.44 176.947 232.294 178.52C233.174 180.093 233.614 181.96 233.614 184.12C233.614 186.12 233.187 187.92 232.334 189.52C231.507 191.093 230.347 192.333 228.854 193.24C227.387 194.12 225.734 194.56 223.894 194.56ZM222.814 189.68C224.44 189.68 225.76 189.16 226.774 188.12C227.814 187.053 228.334 185.72 228.334 184.12C228.334 182.52 227.814 181.2 226.774 180.16C225.76 179.093 224.44 178.56 222.814 178.56C221.187 178.56 219.854 179.093 218.814 180.16C217.8 181.2 217.294 182.52 217.294 184.12C217.294 185.72 217.8 187.053 218.814 188.12C219.854 189.16 221.187 189.68 222.814 189.68ZM237.215 165.2H242.495V194H237.215V165.2ZM257.016 194.56C254.936 194.56 253.07 194.093 251.416 193.16C249.763 192.227 248.456 190.96 247.496 189.36C246.563 187.733 246.096 185.933 246.096 183.96C246.096 182.04 246.536 180.307 247.416 178.76C248.323 177.187 249.563 175.947 251.136 175.04C252.736 174.133 254.536 173.68 256.536 173.68C258.563 173.68 260.31 174.16 261.776 175.12C263.27 176.053 264.39 177.307 265.136 178.88C265.91 180.453 266.296 182.147 266.296 183.96V185.52H251.136C251.456 187.013 252.136 188.147 253.176 188.92C254.243 189.693 255.643 190.08 257.376 190.08C260.016 190.08 262.323 189.213 264.296 187.48H264.856L264.656 192.48C263.456 193.173 262.19 193.693 260.856 194.04C259.523 194.387 258.243 194.56 257.016 194.56ZM261.016 181.92C260.883 180.72 260.376 179.787 259.496 179.12C258.643 178.427 257.59 178.08 256.336 178.08C255.11 178.08 254.03 178.413 253.096 179.08C252.19 179.72 251.576 180.667 251.256 181.92H261.016Z" fill="white"/>
<path d="M159 66.7485C159 63.5737 161.574 61 164.748 61H212.252C215.426 61 218 63.5737 218 66.7485V114.252C218 117.426 215.426 120 212.252 120H164.748C161.574 120 159 117.426 159 114.252V66.7485Z" fill="#4961EE" stroke="#4961EE" stroke-width="30"/>
</svg>
