<svg width="640" height="409" viewBox="0 0 640 409" fill="none" xmlns="http://www.w3.org/2000/svg">
<path d="M428.583 185.5H438.528C441.648 185.5 444.183 186.31 446.133 187.93C448.113 189.55 449.103 191.77 449.103 194.59C449.103 196.63 448.578 198.37 447.528 199.81C446.478 201.25 445.023 202.3 443.163 202.96L451.578 217H444.513L436.503 203.68H434.973V217H428.583V185.5ZM437.988 198.19C441.138 198.19 442.713 196.99 442.713 194.59C442.713 192.19 441.138 190.99 437.988 190.99H434.973V198.19H437.988ZM464.699 217.63C462.359 217.63 460.259 217.105 458.399 216.055C456.539 215.005 455.069 213.58 453.989 211.78C452.939 209.95 452.414 207.925 452.414 205.705C452.414 203.545 452.909 201.595 453.899 199.855C454.919 198.085 456.314 196.69 458.084 195.67C459.884 194.65 461.909 194.14 464.159 194.14C466.439 194.14 468.404 194.68 470.054 195.76C471.734 196.81 472.994 198.22 473.834 199.99C474.704 201.76 475.139 203.665 475.139 205.705V207.46H458.084C458.444 209.14 459.209 210.415 460.379 211.285C461.579 212.155 463.154 212.59 465.104 212.59C468.074 212.59 470.669 211.615 472.889 209.665H473.519L473.294 215.29C471.944 216.07 470.519 216.655 469.019 217.045C467.519 217.435 466.079 217.63 464.699 217.63ZM469.199 203.41C469.049 202.06 468.479 201.01 467.489 200.26C466.529 199.48 465.344 199.09 463.934 199.09C462.554 199.09 461.339 199.465 460.289 200.215C459.269 200.935 458.579 202 458.219 203.41H469.199ZM479.292 194.77H485.232V197.11C487.002 195.13 489.387 194.14 492.387 194.14C494.457 194.14 496.317 194.65 497.967 195.67C499.647 196.66 500.952 198.055 501.882 199.855C502.842 201.625 503.322 203.635 503.322 205.885C503.322 208.315 502.827 210.415 501.837 212.185C500.877 213.955 499.557 215.305 497.877 216.235C496.197 217.165 494.337 217.63 492.297 217.63C489.207 217.63 486.852 216.715 485.232 214.885V227.17H479.292V194.77ZM491.172 212.14C493.002 212.14 494.487 211.555 495.627 210.385C496.797 209.185 497.382 207.685 497.382 205.885C497.382 204.085 496.797 202.6 495.627 201.43C494.487 200.23 493.002 199.63 491.172 199.63C489.342 199.63 487.842 200.23 486.672 201.43C485.532 202.6 484.962 204.085 484.962 205.885C484.962 207.685 485.532 209.185 486.672 210.385C487.842 211.555 489.342 212.14 491.172 212.14ZM507.373 184.6H513.313V217H507.373V184.6ZM528.165 217.63C526.365 217.63 524.625 217.15 522.945 216.19C521.295 215.23 519.945 213.865 518.895 212.095C517.875 210.295 517.365 208.225 517.365 205.885C517.365 203.755 517.86 201.79 518.85 199.99C519.84 198.19 521.19 196.765 522.9 195.715C524.61 194.665 526.485 194.14 528.525 194.14C529.965 194.14 531.27 194.38 532.44 194.86C533.64 195.34 534.555 195.985 535.185 196.795V194.77H541.125V217H535.185V214.975C534.255 215.845 533.265 216.505 532.215 216.955C531.165 217.405 529.815 217.63 528.165 217.63ZM529.38 212.14C531.21 212.14 532.68 211.54 533.79 210.34C534.9 209.14 535.455 207.655 535.455 205.885C535.455 204.115 534.9 202.63 533.79 201.43C532.68 200.23 531.21 199.63 529.38 199.63C527.55 199.63 526.08 200.23 524.97 201.43C523.86 202.63 523.305 204.115 523.305 205.885C523.305 207.655 523.86 209.14 524.97 210.34C526.08 211.54 527.55 212.14 529.38 212.14ZM552.517 212.59L544.192 194.77H550.492L555.712 205.975L561.157 194.77H567.547L551.797 227.17H545.407L552.517 212.59Z" fill="white"/>
<path d="M317.399 265.778C284.11 303.147 226.972 306.328 189.777 272.883V272.883C152.582 239.438 149.416 182.032 182.705 144.663V144.663C215.994 107.294 273.132 104.113 310.327 137.558V137.558C347.522 171.003 350.688 228.409 317.399 265.778V265.778Z" fill="#FA60B6"/>
<path d="M38.3986 243.799C59.6057 267.605 96.0062 269.632 119.701 248.325V248.325C143.397 227.019 145.414 190.448 124.207 166.641V166.641C103 142.835 66.5992 140.809 42.9039 162.115V162.115C19.2087 183.421 17.1916 219.993 38.3986 243.799V243.799Z" fill="#FA60B6"/>
</svg>
