<svg width="376" height="248" viewBox="0 0 376 248" fill="none" xmlns="http://www.w3.org/2000/svg">
<path d="M127.277 166H136.117C138.89 166 141.144 166.72 142.877 168.16C144.637 169.6 145.517 171.573 145.517 174.08C145.517 175.893 145.05 177.44 144.117 178.72C143.184 180 141.89 180.933 140.237 181.52L147.717 194H141.437L134.317 182.16H132.957V194H127.277V166ZM135.637 177.28C138.437 177.28 139.837 176.213 139.837 174.08C139.837 171.947 138.437 170.88 135.637 170.88H132.957V177.28H135.637ZM159.38 194.56C157.3 194.56 155.433 194.093 153.78 193.16C152.126 192.227 150.82 190.96 149.86 189.36C148.926 187.733 148.46 185.933 148.46 183.96C148.46 182.04 148.9 180.307 149.78 178.76C150.686 177.187 151.926 175.947 153.5 175.04C155.1 174.133 156.9 173.68 158.9 173.68C160.926 173.68 162.673 174.16 164.14 175.12C165.633 176.053 166.753 177.307 167.5 178.88C168.273 180.453 168.66 182.147 168.66 183.96V185.52H153.5C153.82 187.013 154.5 188.147 155.54 188.92C156.606 189.693 158.006 190.08 159.74 190.08C162.38 190.08 164.686 189.213 166.66 187.48H167.22L167.02 192.48C165.82 193.173 164.553 193.693 163.22 194.04C161.886 194.387 160.606 194.56 159.38 194.56ZM163.38 181.92C163.246 180.72 162.74 179.787 161.86 179.12C161.006 178.427 159.953 178.08 158.7 178.08C157.473 178.08 156.393 178.413 155.46 179.08C154.553 179.72 153.94 180.667 153.62 181.92H163.38ZM172.351 174.24H177.631V176.32C179.205 174.56 181.325 173.68 183.991 173.68C185.831 173.68 187.485 174.133 188.951 175.04C190.445 175.92 191.605 177.16 192.431 178.76C193.285 180.333 193.711 182.12 193.711 184.12C193.711 186.28 193.271 188.147 192.391 189.72C191.538 191.293 190.365 192.493 188.871 193.32C187.378 194.147 185.725 194.56 183.911 194.56C181.165 194.56 179.071 193.747 177.631 192.12V203.04H172.351V174.24ZM182.911 189.68C184.538 189.68 185.858 189.16 186.871 188.12C187.911 187.053 188.431 185.72 188.431 184.12C188.431 182.52 187.911 181.2 186.871 180.16C185.858 179.093 184.538 178.56 182.911 178.56C181.285 178.56 179.951 179.093 178.911 180.16C177.898 181.2 177.391 182.52 177.391 184.12C177.391 185.72 177.898 187.053 178.911 188.12C179.951 189.16 181.285 189.68 182.911 189.68ZM197.312 165.2H202.592V194H197.312V165.2ZM215.794 194.56C214.194 194.56 212.647 194.133 211.154 193.28C209.687 192.427 208.487 191.213 207.554 189.64C206.647 188.04 206.194 186.2 206.194 184.12C206.194 182.227 206.634 180.48 207.514 178.88C208.394 177.28 209.594 176.013 211.114 175.08C212.634 174.147 214.301 173.68 216.114 173.68C217.394 173.68 218.554 173.893 219.594 174.32C220.661 174.747 221.474 175.32 222.034 176.04V174.24H227.314V194H222.034V192.2C221.207 192.973 220.327 193.56 219.394 193.96C218.461 194.36 217.261 194.56 215.794 194.56ZM216.874 189.68C218.501 189.68 219.807 189.147 220.794 188.08C221.781 187.013 222.274 185.693 222.274 184.12C222.274 182.547 221.781 181.227 220.794 180.16C219.807 179.093 218.501 178.56 216.874 178.56C215.247 178.56 213.941 179.093 212.954 180.16C211.967 181.227 211.474 182.547 211.474 184.12C211.474 185.693 211.967 187.013 212.954 188.08C213.941 189.147 215.247 189.68 216.874 189.68ZM237.441 190.08L230.041 174.24H235.641L240.281 184.2L245.121 174.24H250.801L236.801 203.04H231.121L237.441 190.08Z" fill="white"/>
<path d="M254.723 123.103C238.554 141.169 210.8 142.707 192.734 126.538V126.538C174.668 110.369 173.13 82.6152 189.299 64.5489V64.5489C205.468 46.4826 233.222 44.9446 251.288 61.1138V61.1138C269.354 77.283 270.892 105.036 254.723 123.103V123.103Z" fill="#FA60B6"/>
<path d="M119.206 112.476C129.507 123.986 147.188 124.966 158.697 114.665V114.665C170.206 104.364 171.186 86.6836 160.885 75.1743V75.1743C150.584 63.6649 132.904 62.6852 121.395 72.9859V72.9859C109.885 83.2866 108.906 100.967 119.206 112.476V112.476Z" fill="#FA60B6"/>
</svg>
